<?xml version="1.0" encoding="UTF-8"?><svg id="Layer_2" xmlns="http://www.w3.org/2000/svg" viewBox="0 0 585.1 555.28"><defs><style>.cls-1,.cls-2{fill:#fff;}.cls-2{font-family:BergenText-Regular, 'Bergen Text';font-size:58px;}.cls-3{letter-spacing:0em;}.cls-4{letter-spacing:-.03em;}.cls-5{letter-spacing:0em;}.cls-6{letter-spacing:0em;}.cls-7{fill:#9e2a9e;}.cls-8{letter-spacing:-.02em;}</style></defs><g id="Layer_1-2"><text class="cls-2" transform="translate(0 537.65)"><tspan x="0" y="0">FU</tspan><tspan class="cls-6" x="66.81" y="0">L</tspan><tspan x="95.12" y="0">L </tspan><tspan class="cls-8" x="142.45" y="0">S</tspan><tspan x="173.07" y="0">T</tspan><tspan class="cls-3" x="202.77" y="0">UC</tspan><tspan class="cls-5" x="276.08" y="0">K </tspan><tspan class="cls-3" x="328.04" y="0">D</tspan><tspan class="cls-4" x="363.77" y="0">EV</tspan><tspan class="cls-8" x="425.02" y="0">L</tspan><tspan class="cls-3" x="451.93" y="0">O</tspan><tspan class="cls-8" x="492.3" y="0">P</tspan><tspan x="522.92" y="0">ER</tspan></text><path class="cls-7" d="m6.26,215.43c.78.72,1.58,1.42,2.32,2.18,11.1,11.24,22.13,22.55,33.32,33.71,22.72,22.66,45.51,45.25,68.34,67.8,1.83,1.81,2.6,3.66,2.59,6.21-.05,48.07-.03,96.14-.03,144.21,0,3.59-.24,3.84-3.86,3.84-33.28,0-66.56-.06-99.84.04-3.12,0-3.75-1.07-3.75-3.9.07-49.74.05-99.48.05-149.21,0-33.75,0-67.49,0-101.24,0-1.13,0-2.26,0-3.4.29-.08.58-.16.87-.24Z"/><path class="cls-7" d="m321.63,265.63c33.83-8.76,59.64-28.95,78.67-57.99.85-1.3,1.65-2.6,2.43-3.9h-5.17c-2.72,0-4.58-1.23-6.37-3.05-25.05-25.22-50.1-50.41-75.22-75.53-1.89-1.89-2.69-3.82-2.67-6.47.09-24.53.07-79.78.09-104.31,0-4.44,0-4.46-4.32-4.46h-99c-4.2,0-4.23.02-4.23,4.18,0,25.57.02,64.13-.02,98.81,33.05-.02,66.13-.02,99.21-.09,2.86,0,4.32.97,5.12,3.61,2.03,6.66,1.25,13.27-.64,19.69-4.51,15.47-15.89,23.54-31.83,26.23-12.84,2.17-25.52,1.06-38.25,1.32m71.59,187.37c-33.74-33.86-67.57-67.62-101.41-101.36-1.16-1.16-2.5-2.08-4.25-3.52v5.15c0,35.2.02,70.38.02,105.59,24.56,24.44,49.11,48.92,73.67,73.38,1.82,1.82,3.71,2.55,6.23,2.55,9.37-.02,18.72-.02,28.1-.02,0-25.45-.02-50.93-.12-76.4,0-1.82-.94-4.06-2.24-5.36Z"/><path class="cls-7" d="m447.23,472.78h-3.45c-43.47,0-86.93-.02-130.4.02,0-25.45-.02-89.93-.12-115.41,0-1.82-.94-4.06-2.24-5.36-33.74-33.86-67.57-67.62-101.41-101.36-1.16-1.16-2.5-2.08-4.25-3.52v5.15c0,35.2.02,70.38.02,105.59-28.92-28.8-57.85-57.61-86.79-86.39-36.24-36.05-72.53-72.08-108.92-108.02-3.09-3.07-4.49-6.12-4.46-10.53.14-49.44.09-98.9.09-148.35Q5.31.08,9.78.08h283.96c24.91,0,47.79,6.92,68.75,20.28,26.73,17.05,44.08,41.06,53.22,71.23,5.45,17.99,6.8,36.27,4.86,54.97-2.12,20.38-7.34,39.64-17.85,57.18h-5.17c-2.72,0-4.58-1.23-6.38-3.05-25.05-25.22-50.1-50.41-75.22-75.53-1.89-1.89-2.69-3.82-2.67-6.47.09-24.53.07-79.78.09-104.31,0-4.44,0-4.46-4.32-4.46h-99c-4.2,0-4.23.02-4.23,4.18,0,25.57.02,64.13-.02,98.81h-86c1.26,1.67,3.47,2.27,4.92,3.73,14.59,14.52,29.21,29.04,43.68,43.7"/><path class="cls-1" d="m579.89,473.04c-8.05-.17-16.1-.07-24.15-.07h-75.13c-4.27,0-4.3,0-4.3-4.18.02-50.43.07-109.87.09-160.3,0-7.01-.02-7.01-7.04-7.01-38.39,0-76.78-.05-115.17.05-2.79,0-4.75-.85-6.71-2.81-13.53-13.55-27.08-27.08-40.63-40.63-32.46-32.46-65-64.91-97.54-97.32-2.15-2.15-3.31-4.32-3.49-7.25-.02-.33-.05-.66-.05-1.02.05-13.76.07-31.28.05-49.94.05-34.68.02-73.24.02-98.81,0-4.16-.31-3.73,3.89-3.73h99c4.32,0,4.65-.43,4.65,4.01-.02,24.53,0,79.78-.09,104.31-.02,2.64.78,4.58,2.67,6.47,25.12,25.12,50.17,50.31,75.22,75.53,1.79,1.82,3.66,3.05,6.37,3.05h5.17c23.14-.05,46.25-.02,69.37-.02,3.71,0,4.13-.54,4.11-4.27,0-14.31.09-28.62.07-42.95-.07-24.04-.24-48.07-.28-72.11-.05-13.93.07-57.84.21-71.77.02-.66,1.04-1.53,1.77-1.91.64-.33,1.53-.09,2.34-.09,25.92.02,52.27-.3,78.2-.23,7.65.05,14.81-.09,22.46,0,1.65,0,2.45,1.32,2.33,2.99-.05.78,0,31.56,0,32.36v431.13c0,.99-.09,1.98.02,2.95.28,2.64-.68,3.61-3.45,3.57Z"/><path class="cls-1" d="m313.39,432.8c0,12.21-.02,24.41-.02,36.62,0,3.9-.24,4.13-4.2,4.13-32.89,0-65.78,0-98.67-.02-5.1,0-5.08-.02-5.08-5.01,0-37.21,0-74.42-.02-111.63,0-35.2-.02-70.38-.02-105.59v-5.15c1.75,1.44,3.09,2.36,4.25,3.52,33.83,33.74,67.67,67.5,101.41,101.36,1.3,1.3,2.24,3.54,2.24,5.36.09,25.48.12,50.95.12,76.4Z"/></g></svg>